<svg xmlns="http://www.w3.org/2000/svg" viewBox="0 0 38 24" width="38" height="24" role="img" aria-labelledby="pi-raiffeisenbank"><title id="pi-raiffeisenbank">Raiffeisen Bank</title><path d="M35 0H3C1.3 0 0 1.3 0 3v18c0 1.7 1.4 3 3 3h32c1.7 0 3-1.3 3-3V3c0-1.7-1.4-3-3-3z" opacity=".07"/><path d="M35 1c1.1 0 2 .9 2 2v18c0 1.1-.9 2-2 2H3c-1.1 0-2-.9-2-2V3c0-1.1.9-2 2-2h32" fill="#FEE600"/><g fill="#2B2D33" fill-rule="evenodd"><path d="M14.56 8.93v.77h.5a.44.44 0 00.308-.1c.07-.067.107-.164.107-.292 0-.133-.036-.23-.107-.29a.488.488 0 00-.313-.088h-.495zm.928 2.474l-.66-1.197h-.268v1.197h-.643V8.378h1.218c.209 0 .389.035.54.105a.77.77 0 01.349.304.92.92 0 01.12.481.86.86 0 01-.176.552.93.93 0 01-.502.311l.736 1.273h-.714zm2.316-.57a.536.536 0 00.19-.233.902.902 0 00.07-.372.902.902 0 00-.07-.371.489.489 0 00-.466-.314.5.5 0 00-.28.08.515.515 0 00-.189.234.926.926 0 00-.067.371c0 .145.022.27.067.372a.49.49 0 00.469.313.488.488 0 00.276-.08zm.241-1.784h.612v2.354h-.612v-.28a.819.819 0 01-.294.25.872.872 0 01-.402.092.886.886 0 01-.518-.158 1.04 1.04 0 01-.354-.44 1.538 1.538 0 01-.128-.639c0-.24.043-.455.128-.643a1.04 1.04 0 01.354-.44.886.886 0 01.518-.158.84.84 0 01.696.347V9.05zm1.134 2.354h.611V9.05h-.611v2.354zm.051-2.783a.351.351 0 01-.1-.26c0-.107.033-.194.1-.26A.354.354 0 0119.491 8c.107 0 .194.033.26.1a.356.356 0 01.097.26.356.356 0 01-.098.26.346.346 0 01-.259.1.354.354 0 01-.26-.1zm1.868.429h.647v.534h-.647v1.82h-.612v-1.82h-.401V9.05h.401v-.142c0-.258.075-.456.224-.592.148-.136.352-.205.611-.205a1.344 1.344 0 01.509.098l-.156.467a.695.695 0 00-.264-.049c-.11 0-.19.026-.238.076-.05.05-.074.128-.074.231v.116z"/><path d="M22.66 9.05h.647v.534h-.647v1.82h-.612v-1.82h-.401V9.05h.401v-.142c0-.258.075-.456.224-.592.148-.136.352-.205.611-.205a1.344 1.344 0 01.509.098l-.156.467a.695.695 0 00-.264-.049c-.11 0-.19.026-.239.076-.049.05-.073.128-.073.231v.116zm1.433.974h.977c-.015-.175-.064-.305-.147-.391a.45.45 0 00-.34-.13c-.285 0-.449.174-.49.521zm1.593.419h-1.593c.02.178.078.307.174.387.095.08.235.12.42.12.127 0 .245-.019.354-.056a.866.866 0 00.283-.158l.264.419c-.12.1-.258.177-.415.23-.158.054-.328.08-.51.08-.255 0-.475-.048-.66-.146a.99.99 0 01-.422-.423 1.387 1.387 0 01-.145-.654c0-.249.048-.468.143-.658.095-.19.23-.337.404-.44a1.14 1.14 0 01.596-.156c.223 0 .418.05.585.151.166.1.295.245.386.432.09.186.136.406.136.658v.214zm.374.961h.612V9.05h-.611v2.354zm.052-2.783a.351.351 0 01-.1-.26c0-.107.033-.194.1-.26A.354.354 0 0126.373 8c.107 0 .193.033.259.1a.356.356 0 01.098.26.356.356 0 01-.098.26.346.346 0 01-.259.1.354.354 0 01-.261-.1zm1.341 2.767a1.067 1.067 0 01-.424-.242l.286-.436a.934.934 0 00.67.249.527.527 0 00.27-.056.183.183 0 00.09-.167.182.182 0 00-.082-.153.926.926 0 00-.301-.114 2.777 2.777 0 01-.462-.138.73.73 0 01-.292-.213.555.555 0 01-.112-.36.7.7 0 01.12-.41.765.765 0 01.344-.267c.149-.062.321-.093.518-.093.184 0 .355.026.51.08.157.053.29.132.4.236l-.285.418a.81.81 0 00-.286-.17 1.035 1.035 0 00-.344-.057.519.519 0 00-.259.053.175.175 0 00-.089.16.15.15 0 00.038.105c.025.028.07.056.132.082.062.027.152.054.268.08.16.04.299.085.415.138a.742.742 0 01.285.227.6.6 0 01.112.374.683.683 0 01-.116.396.748.748 0 01-.34.262 1.383 1.383 0 01-.535.094c-.187 0-.364-.026-.531-.078m2.427-1.364h.978c-.015-.175-.064-.305-.147-.391a.45.45 0 00-.34-.13c-.285 0-.449.174-.49.521zm1.594.419h-1.593c.02.178.079.307.174.387.095.08.235.12.42.12.127 0 .245-.019.354-.056a.866.866 0 00.284-.158l.263.419c-.12.1-.258.177-.415.23-.158.054-.328.08-.509.08-.256 0-.476-.048-.66-.146a.99.99 0 01-.422-.423 1.387 1.387 0 01-.145-.654c0-.249.047-.468.143-.658.095-.19.23-.337.403-.44a1.14 1.14 0 01.596-.156c.223 0 .418.05.585.151.166.1.295.245.386.432.09.186.136.406.136.658v.214zm2.131-1.346a.725.725 0 01.292.318c.069.14.103.307.103.503v1.486h-.616v-1.41c0-.152-.035-.265-.105-.341-.07-.076-.176-.114-.319-.114a.556.556 0 00-.283.072.66.66 0 00-.217.213v1.58h-.611V9.05h.611v.276a.756.756 0 01.293-.25.904.904 0 01.404-.088c.172 0 .321.036.448.109M15.06 14.895c.14 0 .244-.03.314-.09.07-.058.105-.153.105-.284 0-.121-.033-.212-.1-.271-.067-.06-.178-.09-.333-.09h-.486v.735h.5zm-.5-1.94v.708h.42c.136 0 .236-.03.3-.09.064-.059.096-.146.096-.262 0-.127-.034-.219-.102-.274-.069-.054-.171-.082-.308-.082h-.406zm1.464 1.168a.77.77 0 01.13.452c0 .275-.09.488-.267.638-.177.15-.427.225-.751.225h-1.219v-3.026h1.111c.322 0 .57.07.746.207.175.138.263.333.263.585 0 .3-.13.515-.388.645.163.06.288.151.375.274zm1.82.745a.536.536 0 00.19-.233.902.902 0 00.07-.372.902.902 0 00-.07-.371.489.489 0 00-.466-.314.5.5 0 00-.28.08.515.515 0 00-.189.234.926.926 0 00-.067.371c0 .145.022.27.067.372a.495.495 0 00.469.313.488.488 0 00.276-.08zm.241-1.784h.612v2.354h-.612v-.28a.819.819 0 01-.294.25.872.872 0 01-.402.092.886.886 0 01-.517-.158 1.04 1.04 0 01-.355-.44 1.538 1.538 0 01-.127-.639c0-.24.042-.454.127-.643a1.04 1.04 0 01.355-.44.886.886 0 01.517-.158.84.84 0 01.696.347v-.285zm2.89.046a.725.725 0 01.292.319c.069.14.103.307.103.503v1.486h-.616v-1.41c0-.152-.035-.265-.105-.341-.07-.076-.176-.113-.319-.113a.556.556 0 00-.283.07.66.66 0 00-.217.214v1.58h-.611v-2.354h.611v.276a.756.756 0 01.293-.25.918.918 0 01.404-.088.88.88 0 01.448.109m2.073 1.052l.946 1.255h-.732l-.808-1.068v1.068h-.611v-3.204h.611v1.807l.768-.957h.728zM5.604 11.202L4.34 9.942l-.338.338L4 10.278c0-.216.064-.96.663-1.543.672-.653 1.344-.271 1.575-.04l1.217 1.213-.301.3.662.66.662-.66-.301-.3 1.217-1.214c.231-.23.903-.612 1.575.04.6.583.663 1.328.663 1.544l-.002.002-.338-.337-1.264 1.26-.348-.347v-.83l-.358.357v1.003l-.493.492 2.559 2.551-1.013 1.01-2.559-2.551-2.559 2.55-1.013-1.009 2.56-2.55-.494-.493v-1.003l-.358-.357v.83l-.348.346z"/></g></svg>